HIERARCHY
ROOT Hips
{
  OFFSET 0 89.5177 0.535
  CHANNELS 6 Xposition Yposition Zposition Zrotation Xrotation Yrotation
  JOINT Spine
  {
    OFFSET 12.0259 -0.162855 1.69034e-005
    CHANNELS 3 Zrotation Xrotation Yrotation
    JOINT Spine1
    {
      OFFSET 15.3169 -0.0121922 0
      CHANNELS 3 Zrotation Xrotation Yrotation
      JOINT Spine2
      {
        OFFSET 15.3176 -0.0121908 0
        CHANNELS 3 Zrotation Xrotation Yrotation
        JOINT Neck
        {
          OFFSET 19.9142 1.56338 0
          CHANNELS 3 Zrotation Xrotation Yrotation
          JOINT Head
          {
            OFFSET 6.92651 0 0
            CHANNELS 3 Zrotation Xrotation Yrotation
            End Site
            {
              OFFSET 20.7666 0 0
            }
          }
          JOINT LeftShoulder
          {
            OFFSET -6.20654 0.708824 7.28219
            CHANNELS 3 Zrotation Xrotation Yrotation
            JOINT LeftArm
            {
              OFFSET 14.108 0 -1.52588e-005
              CHANNELS 3 Zrotation Xrotation Yrotation
              JOINT LeftForeArm
              {
                OFFSET 28.5802 0 0
                CHANNELS 3 Zrotation Xrotation Yrotation
                JOINT LeftHand
                {
                  OFFSET 27.092 0 0
                  CHANNELS 3 Zrotation Xrotation Yrotation
                  End Site
                  {
                    OFFSET 9.55928 -0.186424 0.145352
                  }
                }
              }
            }
          }
          JOINT RightShoulder
          {
            OFFSET -6.20654 0.708866 -7.28218
            CHANNELS 3 Zrotation Xrotation Yrotation
            JOINT RightArm
            {
              OFFSET 14.108 0 1.52588e-005
              CHANNELS 3 Zrotation Xrotation Yrotation
              JOINT RightForeArm
              {
                OFFSET 28.5802 0 0
                CHANNELS 3 Zrotation Xrotation Yrotation
                JOINT RightHand
                {
                  OFFSET 27.092 0 0
                  CHANNELS 3 Zrotation Xrotation Yrotation
                  End Site
                  {
                    OFFSET 9.55929 -0.186417 -0.145354
                  }
                }
              }
            }
          }
        }
      }
    }
  }
  JOINT LeftUpLeg
  {
    OFFSET 0.005 -0.535 8.837
    CHANNELS 3 Zrotation Xrotation Yrotation
    JOINT LeftLeg
    {
      OFFSET 39.9035 0 0
      CHANNELS 3 Zrotation Xrotation Yrotation
      JOINT LeftFoot
      {
        OFFSET 39.6689 0 0
        CHANNELS 3 Zrotation Xrotation Yrotation
        JOINT LeftToe
        {
          OFFSET 10.1624 13.6296 0
          CHANNELS 3 Zrotation Xrotation Yrotation
          End Site
          {
            OFFSET 8.38147 0 0
          }
        }
      }
    }
  }
  JOINT RightUpLeg
  {
    OFFSET 0.005 -0.535 -8.837
    CHANNELS 3 Zrotation Xrotation Yrotation
    JOINT RightLeg
    {
      OFFSET 39.9035 0 0
      CHANNELS 3 Zrotation Xrotation Yrotation
      JOINT RightFoot
      {
        OFFSET 39.6689 0 0
        CHANNELS 3 Zrotation Xrotation Yrotation
        JOINT RightToe
        {
          OFFSET 10.1624 13.6296 0
          CHANNELS 3 Zrotation Xrotation Yrotation
          End Site
          {
            OFFSET 8.38147 0 0
          }
        }
      }
    }
  }
}
MOTION
Frames:	19
Frame Time:	0.0333333
61.8633 87.3275 -110.836 -93.057 43.239 -174.875 1.16517 -0.646932 0.339697 2.33439 -1.28634 0.692701 2.33439 -1.28634 0.692692 -8.30828e-012 -9.0191e-006 -5.27751e-005 32.5857 36.5108 -38.593 -172.252 -21.1609 -69.3471 -51.3353 1.15534 54.5869 -46.814 0 -0 -22.5124 -65.8436 -26.5999 -177.218 10.5537 75.1439 -36.1104 -2.15127 -55.9215 -33.2823 4.77083e-015 -3.18055e-015 -73.1916 70.3308 76.8468 -6.26567 1.5089 -171.062 -37.9377 -3.18055e-015 -3.18055e-015 13.9589 4.5008 -7.50278 90 -1.59028e-015 3.18055e-015 -24.6942 -19.9728 165.949 -24.9376 3.18056e-015 1.19271e-015 5.23979 -4.84371 2.84463 90 1.81993e-020 -0 
61.6824 86.7283 -113.445 -92.7661 42.591 -175.468 1.12885 -0.631712 0.234647 2.26047 -1.2582 0.481895 2.26047 -1.2582 0.481886 -8.30828e-012 -9.0191e-006 -5.27751e-005 38.4977 41.1344 -44.7641 -172.067 -21.5335 -69.2102 -54.0566 0.334826 53.8914 -48.6034 3.18055e-015 -3.18055e-015 -23.1339 -66.0091 -27.2625 -177.26 10.5014 75.2872 -34.9355 -2.40025 -56.1963 -32.3841 0 3.18055e-015 -73.1141 70.2341 76.772 -4.6306 -0.207041 -170.31 -37.683 -9.54166e-015 -6.36111e-015 14.7905 5.30838 -10.2039 90 0 -3.18055e-015 -26.6926 -19.7796 164.597 -25.8264 6.36111e-015 8.94531e-016 3.97707 -4.87614 3.63172 90 -1.81993e-020 -3.18055e-015 
61.532 86.0198 -116.292 -92.6148 41.8697 -176.016 1.11595 -0.604542 0.119019 2.23334 -1.20618 0.249969 2.23334 -1.20618 0.24996 -8.31146e-012 -9.0191e-006 -5.27751e-005 43.073 44.4572 -49.8621 -171.864 -21.8446 -68.9826 -56.3812 0.155246 53.0524 -50.677 0 -1.59028e-015 -23.3511 -66.5035 -27.5085 -177.302 10.5261 75.5335 -33.7355 -2.64835 -56.4841 -30.8717 1.59028e-015 3.18055e-015 -72.4115 70.1614 76.0251 -1.68316 -1.8083 -170.268 -33.019 0 6.36111e-015 18.816 6.9161 -10.5803 90 -1.59028e-015 -3.18055e-015 -28.7979 -19.6267 163.132 -26.4249 -3.18056e-015 1.36664e-016 2.40671 -4.95726 4.51595 90 -1.06162e-020 -6.36111e-015 
61.3721 85.3145 -119.444 -92.6903 40.9437 -176.375 1.1286 -0.57495 0.00343671 2.2574 -1.14925 0.0183561 2.2574 -1.14925 0.0183468 -8.30748e-012 -9.0191e-006 -5.27751e-005 46.3118 46.6779 -53.9677 -171.697 -21.8405 -68.58 -57.8897 0.0379107 52.3161 -52.3591 0 -1.59028e-015 -24.5427 -66.945 -28.7836 -177.347 10.5048 75.7418 -32.3713 -2.97377 -56.5578 -29.051 -3.18055e-015 -0 -71.4914 70.087 75.0448 0.838996 -2.95196 -170.865 -26.5432 3.18055e-015 -6.36111e-015 23.071 8.48444 -9.88854 90 -2.38542e-015 9.54166e-015 -30.5526 -19.263 161.649 -25.8358 6.36111e-015 1.98785e-016 0.0785508 -4.74951 5.64245 90 -1.51661e-020 -6.36111e-015 
61.1778 84.8303 -122.779 -92.6029 39.6893 -176.433 1.23105 -0.531699 -0.213318 2.46027 -1.06738 -0.415035 2.46027 -1.06738 -0.415044 -8.3051e-012 -9.0191e-006 -5.27751e-005 48.6182 48.2994 -57.2115 -171.642 -21.5978 -68.2412 -59.0598 0.0600706 51.78 -52.7649 -1.59028e-015 -7.95139e-015 -24.5483 -67.2607 -28.7978 -177.272 10.5789 75.4533 -30.7861 -3.32669 -56.3213 -26.8031 0 -0 -70.0739 70.1971 73.5196 0.80229 -2.93316 -172.304 -23.7049 0 -0 25.4929 8.68927 -9.48458 90 -1.98785e-016 6.36111e-015 -30.9071 -18.5135 160.091 -22.8976 9.54167e-015 -3.97569e-016 -3.41087 -3.99233 7.14794 90 -2.12325e-020 -0 
60.9519 84.675 -126.148 -92.5149 38.2061 -175.838 1.32481 -0.4462 -0.594587 2.64504 -0.905529 -1.1786 2.64504 -0.905529 -1.17861 -8.30788e-012 -9.0191e-006 -5.27751e-005 50.9681 49.6046 -59.8238 -171.659 -21.3568 -68.0708 -59.8389 0.066874 51.6605 -51.3717 -4.77083e-015 -1.59028e-015 -25.2014 -67.1542 -29.4871 -177.242 10.3976 75.055 -28.2234 -3.6992 -56.603 -24.0855 1.59028e-015 6.36111e-015 -69.0627 69.7788 72.4595 -1.75199 -3.45452 -174.714 -25.2091 6.36111e-015 6.36111e-015 26.7307 8.15812 -9.5708 90 3.97569e-016 -0 -30.3926 -17.4585 158.116 -18.7966 3.18056e-015 -7.95139e-016 -5.41847 -2.49579 9.00249 90 -9.93923e-017 -3.18055e-015 
60.6452 84.8107 -129.395 -92.7336 37.0231 -175.006 1.39205 -0.218413 -0.998332 2.78012 -0.460504 -1.99093 2.78012 -0.460505 -1.99094 -8.30907e-012 -9.0191e-006 -5.27751e-005 54.2963 50.7758 -63.6001 -171.493 -21.2441 -67.5698 -60.2701 0.514989 51.2332 -48.7257 -1.59028e-015 3.18055e-015 -24.1056 -66.7796 -28.315 -177.219 10.2361 74.7124 -25.8623 -4.29747 -57.3728 -21.0762 6.36111e-015 -3.18055e-015 -67.9021 69.5077 71.2265 -5.93403 -4.51897 -177.145 -29.3128 -6.36111e-015 -3.18055e-015 27.4031 8.95633 -9.18604 90 -1.98785e-016 -6.36111e-015 -30.4107 -16.7891 156.233 -16.1366 3.18056e-015 3.18056e-015 -3.01439 -0.381302 10.37 90 0 -9.54166e-015 
60.2488 85.2381 -132.331 -93.0392 36.7871 -174.501 1.47835 0.235366 -1.32422 2.96178 0.436905 -2.65394 2.96178 0.436905 -2.65395 -8.30629e-012 -9.0191e-006 -5.27751e-005 58.7774 51.2889 -68.3013 -171.241 -21.263 -66.98 -59.5749 0.52743 50.9742 -44.6618 -3.18055e-015 -4.77083e-015 -22.3625 -65.9515 -26.4442 -177.306 9.82582 74.5879 -24.0037 -5.40812 -58.6476 -18.3547 6.36111e-015 -0 -66.4567 69.6281 69.6713 -8.72079 -3.8311 -178.869 -30.8973 -1.27222e-014 3.18055e-015 26.8343 9.772 -9.09716 90 0 -6.36111e-015 -30.2201 -17.5834 155.544 -13.6175 3.18056e-015 -1.59028e-015 -0.16652 2.53692 10.0045 90 1.59028e-015 -0 
59.6988 85.853 -135.007 -93.6369 37.3437 -174.62 1.53072 0.761892 -1.43292 3.0804 1.48547 -2.8859 3.0804 1.48547 -2.88591 -8.30549e-012 -9.0191e-006 -5.27751e-005 63.0747 51.5607 -73.2915 -170.64 -21.7095 -65.9816 -57.466 -0.14879 50.7082 -39.5125 -6.36111e-015 -0 -22.058 -64.3621 -26.0596 -177.488 9.28503 74.7887 -23.9237 -7.12967 -59.8891 -16.2948 -1.59028e-015 -1.59028e-015 -64.3175 70.1723 67.3665 -10.236 -3.51616 -179.854 -30.3534 -6.36111e-015 -1.59028e-015 25.8937 9.52795 -6.91473 90 -7.95139e-016 -6.36111e-015 -31.2182 -20.878 156.263 -14.4281 3.18056e-015 -3.18056e-015 -0.408745 4.73378 6.09798 90 0 -0 
59.0805 86.5517 -137.443 -94.023 38.1332 -175.033 1.59056 1.16895 -1.50549 3.21226 2.29572 -3.04363 3.21226 2.29572 -3.04364 -8.30609e-012 -9.0191e-006 -5.27751e-005 66.0276 51.866 -77.0755 -170.08 -22.0973 -65.0664 -52.4931 -2.10002 50.8412 -33.8902 -3.18055e-015 -1.59028e-015 -23.1783 -62.1619 -27.1242 -177.604 8.93035 74.918 -25.9482 -8.97939 -60.9158 -15.1668 1.59028e-015 4.77083e-015 -62.1109 70.6663 65.0038 -10.9379 -3.93624 179.482 -28.6637 1.27222e-014 3.18055e-015 23.9593 8.46102 -5.05571 90 0 3.18055e-015 -31.4904 -24.4895 157.653 -17.044 -3.18056e-015 -2.38542e-015 0.655347 4.74379 3.58134 90 3.97569e-016 -0 
58.4025 87.1824 -139.574 -94.3571 38.6554 -175.836 1.5672 1.41521 -1.50525 3.17247 2.78869 -3.04987 3.17247 2.78869 -3.04988 -8.30639e-012 -9.0191e-006 -5.27751e-005 66.4976 52.3622 -77.8672 -170.007 -22.1304 -64.9335 -45.3694 -4.48968 51.583 -28.2284 -9.54166e-015 -4.77083e-015 -25.7719 -60.37 -29.7352 -177.644 8.91561 75.1349 -28.5296 -10.6351 -61.8211 -15.4925 0 1.59028e-015 -61.0323 70.8633 63.8539 -11.607 -4.06367 179.501 -27.1872 0 1.59028e-015 22.561 7.90443 -3.482 90 -7.95139e-016 -0 -30.0792 -26.7164 160.39 -20.4802 -3.18056e-015 -1.78906e-015 3.00578 3.31949 1.39289 90 3.97569e-016 -0 
57.7617 87.5718 -141.575 -94.6144 38.8014 -176.564 1.50883 1.50695 -1.51922 3.05866 2.97331 -3.07903 3.05866 2.9733 -3.07904 -8.30947e-012 -9.0191e-006 -5.27751e-005 64.1862 53.1419 -75.9053 -170.309 -21.8004 -65.3043 -37.6842 -6.37646 52.1288 -22.9331 -6.36111e-015 -6.36111e-015 -28.5524 -58.7374 -32.5343 -177.67 8.93874 75.3229 -29.0427 -10.8908 -62.0873 -16.8236 1.59028e-015 -3.18055e-015 -61.2717 71.0061 64.1052 -12.8626 -3.4184 179.657 -27.1372 -6.36111e-015 1.59028e-015 22.5354 8.38521 -2.57049 90 7.95139e-016 3.18055e-015 -27.8066 -27.5452 163.563 -24.729 0 -5.96354e-016 7.59669 1.10239 -0.735909 90 3.97569e-016 -9.54166e-015 
57.2483 87.7735 -143.485 -94.3061 38.6472 -177.148 1.53204 1.43033 -1.61013 3.1051 2.81699 -3.25927 3.1051 2.81699 -3.25928 -8.3094e-012 -9.0191e-006 -5.27751e-005 58.2833 53.8774 -70.403 -170.582 -21.5383 -65.685 -31.0285 -6.84821 51.6966 -18.9554 9.54166e-015 -1.19271e-015 -29.1427 -57.6217 -33.047 -177.62 9.14119 75.3392 -28.8029 -10.261 -61.6266 -18.8228 -7.95139e-016 -3.18055e-015 -62.6491 71.0735 65.5654 -13.9099 -2.54253 179.375 -27.6163 0 1.59028e-015 23.0157 9.14104 -1.91939 90 -7.95139e-016 3.18055e-015 -25.7365 -27.6934 165.537 -30.0477 3.18056e-015 3.97569e-016 11.2789 -0.402776 0.642755 90 -6.95746e-016 -3.18055e-015 
56.8952 87.8404 -145.329 -93.6361 38.5327 -177.591 1.57731 1.29622 -1.74399 3.19454 2.54381 -3.52417 3.19454 2.54381 -3.52418 -8.30922e-012 -9.0191e-006 -5.27751e-005 47.0588 53.0851 -59.3744 -170.873 -21.2101 -66.0547 -26.0548 -5.27369 50.4281 -16.4982 9.54166e-015 -1.78906e-015 -27.5837 -56.9403 -31.3244 -177.579 9.26375 75.2844 -28.5116 -9.29754 -60.7874 -21.169 7.95139e-016 -3.18055e-015 -64.7784 70.8892 67.834 -14.5471 -2.16651 178.562 -28.0953 3.18055e-015 1.59028e-015 23.4884 9.48128 -1.01474 90 7.95139e-016 9.54166e-015 -22.8288 -27.5624 167.549 -34.2088 -3.18056e-015 -3.97569e-015 13.6756 -0.484358 0.749734 90 1.98785e-016 -6.36111e-015 
56.5383 87.7796 -147.165 -93.4506 38.8096 -177.472 1.49953 1.24463 -1.91047 3.04078 2.43861 -3.85402 3.04078 2.4386 -3.85403 -8.30619e-012 -9.0191e-006 -5.27751e-005 32.7446 48.4536 -44.6394 -171.121 -21.033 -66.4782 -22.5161 -2.27566 48.9977 -15.3236 -3.18055e-015 -2.38542e-015 -25.0142 -56.7887 -28.6098 -177.528 9.4117 75.2121 -28.3283 -8.0128 -59.8762 -23.2739 -7.95139e-016 -1.27222e-014 -66.6339 70.6173 69.8212 -15.6285 -1.76191 177.506 -28.7223 0 -4.77083e-015 23.6898 9.53653 -0.113041 90 2.38542e-015 6.36111e-015 -19.8866 -27.105 169.8 -37.4488 -6.36111e-015 -1.59028e-015 15.8598 0.200889 -0.268972 90 0 6.36111e-015 
56.1748 87.6417 -149.008 -93.4887 39.3904 -177.034 1.36492 1.30342 -2.06814 2.77706 2.55682 -4.16816 2.77706 2.55682 -4.16817 -8.30569e-012 -9.0191e-006 -5.27751e-005 20.3615 39.4261 -30.9156 -171.317 -21.1886 -67.094 -19.6237 0.437417 48.1508 -14.7479 3.18055e-015 7.95139e-016 -22.3984 -56.79 -25.8824 -177.468 9.61259 75.17 -28.5284 -6.70201 -58.9509 -25.1357 3.97569e-015 -0 -68.3677 70.1923 71.6932 -16.9928 -0.781968 176.46 -29.4624 0 -4.77083e-015 23.2183 9.70559 0.262085 90 7.95139e-016 1.59028e-014 -16.6867 -26.0909 172.268 -39.6554 6.36111e-015 3.18056e-015 17.861 0.845978 -1.20673 90 -1.98785e-015 6.36111e-015 
55.8436 87.463 -150.86 -93.3575 40.3715 -176.6 1.25746 1.44392 -2.16102 2.56969 2.83949 -4.35508 2.56969 2.83949 -4.35509 -8.3051e-012 -9.0191e-006 -5.27751e-005 12.6478 28.7135 -21.4869 -171.2 -21.79 -67.3619 -17.0753 2.39605 47.6686 -14.8323 0 -4.77083e-015 -20.8402 -56.9358 -24.2803 -177.436 9.80117 75.2647 -29.1326 -5.34381 -57.9654 -26.7183 3.57812e-015 -3.18055e-015 -69.4063 69.9673 72.817 -18.0782 0.472797 175.408 -30.0964 -9.54166e-015 1.59028e-015 22.8394 9.77449 0.768942 90 0 -1.27222e-014 -12.8905 -24.4335 174.894 -40.4752 0 -0 19.28 0.876625 -1.26117 90 -7.95139e-016 -0 
55.5429 87.2169 -152.811 -93.3453 41.2754 -175.983 1.15418 1.55675 -2.18284 2.36814 3.06853 -4.39883 2.36814 3.06853 -4.39884 -8.3039e-012 -9.0191e-006 -5.27751e-005 8.69885 18.9564 -15.6956 -170.925 -22.4732 -67.3216 -14.3791 3.40971 47.6115 -15.3625 -1.27222e-014 1.59028e-015 -20.0674 -57.4821 -23.5281 -177.397 10.0058 75.3376 -30.276 -4.08973 -56.6966 -28.1054 0 3.18055e-015 -70.0905 69.9405 73.5518 -19.3257 1.38789 174.173 -30.7562 3.18055e-015 -7.95139e-016 22.3163 9.60172 1.27026 90 0 6.36111e-015 -8.96476 -23.035 177.322 -39.8989 3.18056e-015 -0 20.2619 -0.35833 -1.24499 90 7.95139e-016 3.18055e-015 
55.2081 86.8615 -154.861 -93.6397 41.7649 -175.254 1.03516 1.60176 -2.10669 2.12977 3.16456 -4.24426 2.12977 3.16456 -4.24427 -8.30907e-012 -9.0191e-006 -5.27751e-005 6.91323 11.1477 -12.0623 -170.606 -23.1551 -67.1825 -12.1468 3.99449 48.0766 -16.174 3.18055e-015 4.77083e-015 -20.0644 -58.1268 -23.5791 -177.317 10.3138 75.3323 -31.6877 -3.03351 -55.2109 -29.5033 1.54058e-015 6.36111e-015 -70.8804 69.8071 74.4073 -21.2376 2.28397 173.019 -31.8907 6.36111e-015 7.95139e-016 21.4009 9.72438 1.22249 90 0 -1.27222e-014 -4.72191 -22.3511 -179.982 -37.5652 0 -0 21.3354 -3.61966 -2.96232 90 -1.59028e-015 3.18055e-015 
